<svg xmlns="http://www.w3.org/2000/svg" viewBox="0 0 381.496 381.496" xml:space="preserve">
  <path d="M353.165 182.381c1.217-2.613 9.533-13.636 17.062-25.062a240.271 240.271 0 0 0 4.902-7.725l.129-.214c.248-.412 17.859-28.646-7.225-17.212l-.004.007c-4.713 2.417-10.707 6.021-18.244 11.072-16.441 11.021-49.885 27.154-49.885 27.154s-5.82 3.144-9.658.749c-19.396-12.1-47.656-33.594-84.912-45.562-.621-.2-1.408-.673-.338-1.664l15.955-11.158s1.25-1.08-.355-1.602c-7.896-2.573-40.783-13.601-69.24-3.462l-14.467 5.155c-1.682.6-3.391 1.305-6.799 1.726C52.482 117.237 0 174.203 0 196.737c0 15.123 8.154 25.271 37.947 39.378.598-.095 5.146 3.17 15.137.168 2.678-.805 21.697-7.968 22.453-8.291.758-.346 1.25-.517 1.564-.466.404.064.701.962.699 1.144-.063 5.387-10.16 9.75-15.893 14.537-.984.459-1.248 2.744.475 3.484.002 0 20.246 10.854 52.307 14.229 2.592.273 36.34 21.897 70.371 16.096 17.999-3.069 26.564-4.119 30.473-5.197 3.412-.94 1.783-2.022 1.783-2.022l-17.059-13.592c-1.155-1.281-.221-2.265.746-2.539 37.882-10.779 67.834-27.771 85.672-42.328 2.402-1.961 8.645 2.701 13.102 4.953 14.801 7.477 76.238 32.803 81.301 27.442.436-.452.467-1.125.023-2.05-8.645-18.159-39.891-33.648-27.936-59.302zm-290.33-1.749c-5.465 0-9.895-4.512-9.895-10.077s4.43-10.076 9.895-10.076 9.896 4.511 9.896 10.076-4.431 10.077-9.896 10.077zm44.283 57.333c-.609.547-1.164 1.373-.842.185 0 0 15.426-23.21 17.426-53.211 1.498-22.484-13.482-50.02-13.482-50.02s.029-.804.555-.169c5.333 6.45 57.843 47.938-3.657 103.215z"/>
</svg>