<svg xmlns="http://www.w3.org/2000/svg" viewBox="0 0 32 32" xml:space="preserve">
  <path style="fill:#030104" d="M17.6 30c0 1.102-.895 2-2 2s-2-.898-2-2c0-1.109.895-2 2-2s2 .891 2 2zM15.676 25.977a4.964 4.964 0 0 1-3.535-1.469c-.945-1.105-1.465-2.359-1.465-3.695s.52-2.59 1.465-3.371l6.688-6.688A3.983 3.983 0 0 0 20 7.926c0-1.07-.416-2.074-1.172-2.828a4 4 0 0 0-5.654 0A3.958 3.958 0 0 0 12 7.926H8c0-2.137.834-4.148 2.348-5.66 3.02-3.023 8.285-3.02 11.309.004A7.932 7.932 0 0 1 24 7.926a7.942 7.942 0 0 1-2.344 5.656l-6.688 6.523a.999.999 0 1 0 1.707.703h4c0 1.336-.52 2.594-1.465 3.699a4.96 4.96 0 0 1-3.534 1.47z"/>
</svg>