<svg xmlns="http://www.w3.org/2000/svg" viewBox="0 0 58.048 58.048" xml:space="preserve">
  <path d="m57.178 26.494-.028-.004c-.011-.002-.021-.009-.032-.01l-5.341-.702-.002-10.454c0-.007.003-.016.003-.016 0-.018-.003-.028-.003-.04v-.025c-.001-.031-.008-.06-.01-.091a2.405 2.405 0 0 0-.038-.328c-.005-.024-.014-.048-.019-.072a2.553 2.553 0 0 0-.105-.354l-.012-.027C49.952 10.237 37.54 7.523 25.89 7.523 13.386 7.524 0 10.649 0 15.301c0 .015.004.03.004.044L0 33.524c0 4.321 11.907 8.111 25.481 8.111l.53-.004a1 1 0 0 0 .988-1v-6.728c1.079.359 2.654.887 4 1.34v8.281c0 .234.082.461.231.641l5 6c.01.012.026.016.036.028.011.012.016.029.027.041.057.056.128.089.195.13.038.023.069.055.11.073.125.055.26.088.4.088h.005c8.113-.038 15.725-.986 20.36-2.536.407-.136.683-.519.683-.948V27.485a.996.996 0 0 0-.868-.991zm-19.68 2.469-2.712-3.134 11.076 1.194.007.001h.001l2.236.293 3.453.454c-3.979.714-8.892 1.139-14.061 1.192zm12.278-3.448L47 25.15v-3.829c1.081-.434 2.021-1.136 2.775-1.955l.001 6.149zM27 31.795v-9.271c0-.011-.004-.021-.005-.033-.001-.036-.011-.07-.015-.106-.008-.054-.012-.109-.028-.162-.013-.043-.038-.083-.057-.124-.019-.041-.032-.084-.056-.122l-3.386-5.199L45 21.334v3.553l-12.822-1.685c-.014-.002-.028.002-.042.001l-.006-.001c-.031-.004-.061.003-.092.001a1.153 1.153 0 0 0-.144.002.967.967 0 0 0-.16.033c-.028.008-.056.007-.084.017-.018.007-.032.02-.049.028-.048.021-.091.048-.136.076a1.023 1.023 0 0 0-.119.085.932.932 0 0 0-.101.107 1.052 1.052 0 0 0-.091.12c-.01.017-.026.029-.035.046-.015.029-.019.06-.032.09a1.107 1.107 0 0 0-.05.14 1.045 1.045 0 0 0-.024.157c-.002.031-.013.059-.013.09v8.938c-2.14-.719-3.324-1.117-4-1.337zm6 2.729v-7.646l3 3.467v16.418l-3-3.601v-8.638z"/>
</svg>