<svg xmlns="http://www.w3.org/2000/svg" viewBox="0 0 512 512" xml:space="preserve">
  <path d="M481.894 270.137c9.844-67.845-37.343-131.053-105.189-140.898-34.592-5.012-69.913 4.852-96.906 27.076-.094.076-.173.163-.265.241a2.936 2.936 0 0 1-.328-1.361V116.22c18.989-3.48 33.429-20.139 33.429-40.117V40.795C312.635 18.3 294.334 0 271.839 0H149.431c-22.496 0-40.796 18.301-40.796 40.795v35.308c0 19.941 14.384 36.575 33.32 40.097v38.993c0 1.45-.969 2.39-1.799 2.756-.363.161-.719.329-1.068.509-67.055 28.71-110.281 94.15-110.281 167.199 0 100.26 81.568 181.828 181.828 181.828 33.452 0 64.818-9.09 91.772-24.916l23.551 23.551a20.076 20.076 0 0 0 14.195 5.881h.007a20.075 20.075 0 0 0 14.199-5.889l38.902-38.954c17.356 3.608 35.923-1.562 48.883-14.539 10.108-10.118 15.669-23.565 15.659-37.866-.008-14.301-5.586-27.742-15.706-37.846l-18.505-18.481c31.793-19.351 52.921-51.199 58.302-88.289zM148.788 40.795c0-.355.289-.642.644-.642H271.84c.356 0 .644.289.644.642v35.308a.644.644 0 0 1-.644.644H149.431a.644.644 0 0 1-.644-.644V40.795zm7.331 154.055a19.838 19.838 0 0 0 2.31-1.143c14.456-7.312 23.676-22.185 23.676-38.513v-33.642h56.949v33.642c0 17.312 10.221 32.81 26.087 39.641.139.062.278.123.42.182 34.345 14.461 60.76 41.283 75 74.035H80.695c14.291-32.886 40.863-59.776 75.424-74.202zm108.327 221.396c-7.826 7.842-7.819 20.543.015 28.377l8.329 8.329c-18.778 9.203-39.871 14.381-62.154 14.381-78.12 0-141.675-63.555-141.675-141.675 0-5.548.328-11.038.954-16.452h281.442c.142 1.221.253 2.448.363 3.677-12.38.905-24.505 6.07-33.946 15.521-12.964 12.98-18.103 31.558-14.475 48.908l-38.853 38.934zm149.288 7.996c-4.208 4.212-10.774 5.134-15.972 2.239a20.074 20.074 0 0 0-23.975 3.353l-33.645 33.689-33.111-33.109 33.618-33.688a20.075 20.075 0 0 0 3.315-23.974c-2.902-5.193-1.989-11.762 2.216-15.974 5.216-5.222 13.708-5.228 18.93-.013l48.612 48.549a13.285 13.285 0 0 1 3.927 9.46 13.291 13.291 0 0 1-3.915 9.468zm28.424-159.871c-3.843 26.486-19.546 49.035-43.083 61.866a20.036 20.036 0 0 0-4.419 3.286l-1.168-1.167c-.341-.341-.696-.661-1.044-.99.005-.57.021-1.136.021-1.708 0-13.451-1.482-26.642-4.296-39.401a19.839 19.839 0 0 0-.835-3.536 181.328 181.328 0 0 0-69.44-103.941c16.018-8.91 34.677-12.474 53.046-9.804 45.935 6.664 77.883 49.46 71.218 95.395z"/>
</svg>